HIERARCHY
ROOT Hips
{
	OFFSET 0.00000 0.00000 0.00000
	CHANNELS 6 Xposition Yposition Zposition Zrotation Yrotation Xrotation 
	JOINT RightUpLegDummy
	{
		OFFSET 0 0 0
		CHANNELS 3 Zrotation Yrotation Xrotation
		JOINT RightUpLeg
		{
			OFFSET -3.52197 -3.41223 0.04002
			CHANNELS 3 Zrotation Yrotation Xrotation
			JOINT RightLeg
			{
				OFFSET 0.00006 -17.42390 1.60435
				CHANNELS 3 Zrotation Yrotation Xrotation
				JOINT RightFoot
				{
					OFFSET 0.06153 -16.50078 -1.63901
					CHANNELS 3 Zrotation Yrotation Xrotation
					JOINT RightToes
					{
						OFFSET 0.00298 -1.73825 3.34613
						CHANNELS 3 Zrotation Yrotation Xrotation
						End Site
						{
							OFFSET 0.00480 -0.05416 3.85043
						}
					}
				}
			}
		}
	}
	JOINT SpineDummy
	{
		OFFSET 0 0 0
		CHANNELS 3 Zrotation Yrotation Xrotation
		JOINT Spine
		{
			OFFSET 0.00000 4.68130 0.00000
			CHANNELS 3 Zrotation Yrotation Xrotation
			JOINT Spine1
			{
				OFFSET -0.00000 10.10138 0.05002
				CHANNELS 3 Zrotation Yrotation Xrotation
				JOINT HEadDummy
				{
					OFFSET 0 0 0
					CHANNELS 3 Zrotation Yrotation Xrotation
					JOINT Head
					{
						OFFSET -0.00000 3.43865 0.00438
						CHANNELS 3 Zrotation Yrotation Xrotation
						End Site
						{
							OFFSET -0.11417 5.02924 0.98962
						}
					}
				}
				JOINT LeftShoulder1Dummy
				{
					OFFSET 0 0 0
					CHANNELS 3 Zrotation Yrotation Xrotation
					JOINT LeftShoulder1
					{
						OFFSET 3.53937 -0.14262 -0.08662
						CHANNELS 3 Zrotation Yrotation Xrotation
						JOINT LeftArm
						{
							OFFSET 4.04833 -0.00133 0.12681
							CHANNELS 3 Zrotation Yrotation Xrotation
							JOINT LeftForeArm
							{
								OFFSET 10.33880 -0.01036 -0.55515
								CHANNELS 3 Zrotation Yrotation Xrotation
								JOINT LeftHand
								{
									OFFSET 8.69677 0.07543 0.40060
									CHANNELS 3 Zrotation Yrotation Xrotation
									End Site
									{
										OFFSET 5.28377 -0.21905 0.59205
									}
								}
							}
						}
					}
				}
				JOINT RightShoulderDummy
				{
					OFFSET 0 0 0
					CHANNELS 3 Zrotation Yrotation Xrotation
					JOINT RightShoulder
					{
						OFFSET -3.53937 -0.14262 -0.08660
						CHANNELS 3 Zrotation Yrotation Xrotation
						JOINT RightArm
						{
							OFFSET -4.04833 -0.00133 0.12683
							CHANNELS 3 Zrotation Yrotation Xrotation
							JOINT RightForeArm
							{
								OFFSET -10.37987 -0.01039 -0.55511
								CHANNELS 3 Zrotation Yrotation Xrotation
								JOINT RightHand
								{
									OFFSET -8.67398 0.07538 0.40058
									CHANNELS 3 Zrotation Yrotation Xrotation
									End Site
									{
										OFFSET -5.24810 -0.21916 0.59204
									}
								}
							}
						}
					}
				}
			}
		}
	}
	JOINT LeftUpLegDummy
	{
		OFFSET 0 0 0
		CHANNELS 3 Zrotation Yrotation Xrotation
		JOINT LeftUpLeg
		{
			OFFSET 3.52197 -3.41223 0.04002
			CHANNELS 3 Zrotation Yrotation Xrotation
			JOINT LeftLeg
			{
				OFFSET -0.00012 -17.42399 1.60337
				CHANNELS 3 Zrotation Yrotation Xrotation
				JOINT LeftFoot
				{
					OFFSET -0.09972 -16.50070 -1.63802
					CHANNELS 3 Zrotation Yrotation Xrotation
					JOINT LeftToes
					{
						OFFSET -0.01575 -1.73823 3.34611
						CHANNELS 3 Zrotation Yrotation Xrotation
						End Site
						{
							OFFSET 0.03150 -0.01868 3.85031
						}
					}
				}
			}
		}
	}
}
MOTION
Frames: 9
Frame Time: 0.033333
2.2614 38.2398 -36.0504 -177.3360 1.9994 177.6380 0.0000 0.0000 0.0000 9.0449 6.6273 -20.8027 -3.3534 -14.0898 8.4062 -6.0673 0.4167 -3.2175 0.0000 -0.0000 0.0000 0.0000 0.0000 0.0000 -5.7489 -3.3286 9.6480 7.7661 -4.9233 -1.6241 -0.0000 0.0000 -0.0000 -0.2151 1.5865 2.7219 -0.0000 0.0000 -0.0000 -34.7735 -3.1086 2.6984 -44.1184 -21.4893 -19.8676 -7.9037 4.9251 55.5259 12.6527 -3.5430 -0.9451 -0.0000 0.0000 -0.0000 35.7583 5.3244 3.6899 39.2752 -0.7613 -13.7328 10.4754 8.6093 15.8922 -9.3370 2.1639 -0.5892 0.0000 0.0000 0.0000 2.2810 17.5310 17.3842 -12.5700 -27.8162 20.2011 4.4473 0.1262 -12.6777 0.0000 0.0000 -0.0000
2.1559 38.0521 -37.4563 -176.1870 1.2817 177.2630 0.0000 0.0000 0.0000 9.9659 6.7258 -21.3982 -4.7290 -13.6192 14.0260 -5.9594 0.5136 -1.3723 0.0000 -0.0000 0.0000 0.0000 0.0000 0.0000 -2.8899 -3.4986 9.5822 6.8356 -4.8060 -1.9334 -0.0000 0.0000 -0.0000 -1.2904 1.1313 3.4517 -0.0000 0.0000 -0.0000 -35.0461 -3.0964 2.7119 -44.2335 -20.8694 -19.9128 -7.9596 4.9379 55.1211 12.9331 -3.3285 -0.9446 -0.0000 0.0000 -0.0000 35.8122 5.3290 3.6967 38.7321 -1.1055 -17.8193 10.5851 4.6160 19.2697 -9.2988 2.1061 -0.5825 0.0000 0.0000 0.0000 6.2711 19.1535 15.9471 -20.3933 -30.7960 30.6985 -3.4272 0.1899 -8.5511 0.0000 0.0000 -0.0000
2.0844 37.8646 -38.6737 -175.2130 1.2986 176.7930 0.0000 0.0000 0.0000 10.8968 5.8532 -21.6000 -5.9464 -13.9466 19.1151 -3.6782 0.3014 -1.8527 0.0000 -0.0000 0.0000 0.0000 0.0000 0.0000 -1.1606 -3.2484 10.5007 6.6860 -4.4300 -2.6876 -0.0000 0.0000 -0.0000 -1.6615 1.1760 3.8329 -0.0000 0.0000 -0.0000 -34.4077 -3.0236 2.6396 -45.2750 -20.0052 -19.1210 -8.5690 5.0234 52.2590 13.2928 -3.2477 -0.9633 -0.0000 0.0000 -0.0000 35.6013 5.2979 3.6647 38.6057 -0.3997 -19.5545 9.9436 1.1545 20.7872 -8.8814 1.8221 -0.5362 0.0000 0.0000 0.0000 8.8838 18.3640 12.1315 -27.8662 -28.9403 42.2699 -16.1664 1.3751 -1.8872 0.0000 0.0000 -0.0000
2.0850 37.7239 -39.7416 -175.2360 1.2765 176.2770 0.0000 0.0000 0.0000 11.3449 4.8910 -21.3277 -6.9447 -13.4717 23.2100 -3.7423 0.2181 -4.0432 0.0000 -0.0000 0.0000 0.0000 0.0000 0.0000 -1.4258 -2.8068 11.7511 7.1914 -4.0216 -3.2607 -0.0000 0.0000 -0.0000 -1.2003 1.0531 3.7511 -0.0000 0.0000 -0.0000 -33.4213 -3.0056 2.5674 -46.1824 -19.4248 -17.4394 -9.7558 5.1304 48.2998 13.0345 -3.5808 -0.9783 -0.0000 0.0000 -0.0000 35.3251 5.2593 3.6239 38.9579 0.4167 -20.6737 9.4159 -0.4055 21.8202 -8.3458 1.3002 -0.4691 0.0000 0.0000 0.0000 9.0700 15.6153 6.8084 -29.3336 -22.3919 50.6367 -24.0901 3.1150 3.5435 0.0000 0.0000 -0.0000
2.0726 37.7367 -40.8573 -175.8420 0.9969 175.8270 0.0000 0.0000 0.0000 11.1428 4.9429 -20.2717 -7.7325 -12.9689 25.8468 -5.8278 0.2288 -6.3986 0.0000 -0.0000 0.0000 0.0000 0.0000 0.0000 -1.9625 -2.3935 12.4642 7.0552 -3.5880 -3.3852 -0.0000 0.0000 -0.0000 -0.5180 0.4934 3.5587 -0.0000 0.0000 -0.0000 -33.1140 -3.0147 2.5508 -45.6721 -19.4441 -15.6558 -10.9929 5.1842 45.8773 12.2761 -4.3519 -0.9952 -0.0000 0.0000 -0.0000 35.2784 5.2528 3.6170 39.5870 0.6490 -20.6339 9.3778 0.1291 21.5901 -8.0979 1.0730 -0.4407 0.0000 0.0000 0.0000 8.0541 12.2618 1.1560 -24.2965 -14.5050 55.8492 -21.6607 2.9559 4.0594 0.0000 0.0000 -0.0000
1.9771 37.9023 -42.1098 -176.3510 1.0232 175.5640 0.0000 0.0000 0.0000 10.7885 5.2213 -18.3476 -8.3366 -12.8279 26.9729 -6.5270 0.1435 -8.3412 0.0000 -0.0000 0.0000 0.0000 0.0000 0.0000 -1.3965 -2.0142 12.5037 5.7266 -2.9966 -3.2998 -0.0000 0.0000 -0.0000 -0.2073 -0.0316 3.4884 -0.0000 0.0000 -0.0000 -33.4958 -2.9391 2.5460 -44.1523 -19.6607 -14.8549 -11.6184 5.1902 45.3580 12.1649 -5.0165 -1.0513 -0.0000 0.0000 -0.0000 35.3975 5.2686 3.6342 40.2024 0.6852 -19.6038 9.7776 1.4547 20.8034 -8.2596 1.3964 -0.4704 0.0000 0.0000 0.0000 7.0161 9.6112 -4.2229 -14.7095 -7.4198 58.9525 -12.8252 1.3510 0.5257 0.0000 0.0000 -0.0000
1.8438 38.1051 -43.3982 -176.8410 1.6820 175.3800 0.0000 0.0000 0.0000 10.3254 4.8582 -15.9365 -8.3056 -12.3979 27.1640 -5.7133 0.0240 -10.1140 0.0000 -0.0000 0.0000 0.0000 0.0000 0.0000 -0.5589 -1.5230 12.4239 4.1704 -2.2416 -3.2746 -0.0000 0.0000 -0.0000 -0.3010 -0.0985 3.4623 -0.0000 0.0000 -0.0000 -33.7169 -2.7892 2.5010 -43.1332 -19.4817 -15.3647 -11.4707 5.2194 44.3269 13.2812 -4.8577 -1.1339 -0.0000 0.0000 -0.0000 35.3470 5.2591 3.6258 40.7410 1.1317 -18.0756 10.2955 2.8374 20.5308 -8.5587 1.8175 -0.5155 0.0000 0.0000 0.0000 6.0920 7.8582 -9.1867 -4.5348 -2.2714 60.2929 -4.7730 0.3315 -3.6543 0.0000 0.0000 -0.0000
1.7443 38.2882 -44.6596 -177.6270 2.6100 175.0650 0.0000 0.0000 0.0000 9.6067 4.0765 -13.2722 -7.6421 -11.2757 26.9299 -5.7248 -0.0657 -11.7548 0.0000 -0.0000 0.0000 0.0000 0.0000 0.0000 -0.6199 -0.8921 12.5180 3.3804 -1.4896 -3.2271 -0.0000 0.0000 -0.0000 -0.4971 0.1481 3.3696 -0.0000 0.0000 -0.0000 -33.4674 -2.6842 2.4437 -43.0593 -18.9004 -16.5007 -11.0361 5.3000 41.3599 14.7920 -4.0209 -1.1690 -0.0000 0.0000 -0.0000 35.0708 5.2163 3.5836 41.1624 1.9238 -16.3940 10.6719 4.5895 20.7403 -8.6622 1.9245 -0.5291 0.0000 0.0000 0.0000 5.1513 6.5159 -13.4464 2.3351 0.8161 59.4765 -0.0965 0.0406 -6.9204 0.0000 0.0000 -0.0000
1.6758 38.4569 -45.9290 -178.4860 3.4088 174.6540 0.0000 0.0000 0.0000 8.8414 3.5887 -10.4718 -7.0747 -10.1578 26.5418 -6.6104 -0.1586 -13.2438 0.0000 -0.0000 0.0000 0.0000 0.0000 0.0000 -1.1558 -0.2923 12.5144 3.0851 -0.8719 -2.9694 -0.0000 0.0000 -0.0000 -0.6106 0.4519 3.2390 -0.0000 0.0000 -0.0000 -33.2471 -2.6787 2.4278 -43.0028 -18.2737 -17.4274 -10.8216 5.3763 38.2083 15.5109 -3.4162 -1.1521 -0.0000 0.0000 -0.0000 34.8752 5.1855 3.5536 41.2958 2.7978 -14.3595 10.7697 6.6882 20.2614 -8.5879 1.9585 -0.5267 0.0000 0.0000 0.0000 4.2871 5.4120 -16.7535 5.7978 2.8557 55.9231 2.3277 0.0186 -9.6109 0.0000 0.0000 -0.0000
